# AST/ASF file generated using VICON BodyLanguage
# -----------------------------------------------
:version 1.10
:name VICON
:units
  mass 1.0
  length 0.45
  angle deg
:documentation
   .ast/.asf automatically generated from VICON data using
   VICON BodyBuilder and BodyLanguage model FoxedUp or BRILLIANT.MOD
:root
   order TX TY TZ RX RY RZ
   axis XYZ
   position 0 0 0  
   orientation 0 0 0 
:bonedata
  begin
     id 1 
     name lhipjoint
     direction 0.588788 -0.725889 0.355548 
     length 2.37778 
     axis 0 0 0  XYZ
  end
  begin
     id 2 
     name lfemur
     direction 0.34202 -0.939693 0  
     length 6.86393  
     axis 0 0 20  XYZ
    dof rx ry rz
    limits (-160.0 20.0)
           (-70.0 70.0)
           (-60.0 70.0)
  end
  begin
     id 3 
     name ltibia
     direction 0.34202 -0.939693 0   
     length 7.32851   
     axis 0 0 20   XYZ
    dof rx
    limits (-10.0 170.0)
  end
  begin
     id 4 
     name lfoot
     direction 0.0626533 -0.172138 0.983078   
     length 1.98929   
     axis -90 7.62852e-016 20   XYZ
    dof rx rz
    limits (-45.0 90.0)
           (-70.0 20.0)
  end
  begin
     id 5 
     name ltoes
     direction 1.53647e-011 -4.21734e-011 1   
     length 1.00479   
     axis -90 7.62852e-016 20   XYZ
    dof rx
    limits (-90.0 20.0)
  end
  begin
     id 6 
     name rhipjoint
     direction -0.59141 -0.724168 0.354705   
     length 2.38343  
     axis 0 0 0  XYZ 
  end
  begin
     id 7 
     name rfemur
     direction -0.34202 -0.939693 0   
     length 6.95589   
     axis 0 0 -20   XYZ
    dof rx ry rz
    limits (-160.0 20.0)
           (-70.0 70.0)
           (-70.0 60.0)
  end
  begin
     id 8 
     name rtibia
     direction -0.34202 -0.939693 0   
     length 7.32327   
     axis 0 0 -20   XYZ
    dof rx
    limits (-10.0 170.0)
 end
 begin
     id 9 
     name rfoot
     direction -0.0660461 -0.18146 0.981178   
     length 1.85272  
     axis -90 -7.62852e-016 -20   XYZ
    dof rx rz
    limits (-45.0 90.0)
           (-20.0 70.0)
  end
  begin
     id 10 
     name rtoes
     direction -1.53586e-011 -4.21988e-011 1   
     length 0.93746   
     axis -90 -7.62852e-016 -20   XYZ
    dof rx
    limits (-90.0 20.0)
  end
  begin
     id 11 
     name lowerback
     direction -0.0107982 0.991059 0.13299   
     length 1.98691   
     axis 0 0 0   XYZ
    dof rx ry rz
    limits (-20.0 45.0)
           (-30.0 30.0)
           (-30.0 30.0)
  end
  begin
     id 12 
     name upperback
     direction 0.0076296 0.999916 0.0104576   
     length 1.99501   
     axis 0 0 0   XYZ
    dof rx ry rz
    limits (-20.0 45.0)
           (-30.0 30.0)
           (-30.0 30.0)
  end
  begin
     id 13 
     name thorax
     direction 0.01176 0.998615 -0.0512909   
     length 2.03144   
     axis 0 0 0   XYZ
    dof rx ry rz
    limits (-20.0 45.0)
           (-30.0 30.0)
           (-30.0 30.0)
  end
  begin
     id 14 
     name lowerneck
     direction -0.0171909 0.999644 0.0204011   
     length 1.71818   
     axis 0 0 0   XYZ
    dof rx ry rz
    limits (-20.0 45.0)
           (-30.0 30.0)
           (-30.0 30.0)
  end
  begin
     id 15 
     name upperneck
     direction 0.0250902 0.997482 -0.0663316   
     length 1.66199   
     axis 0 0 0   XYZ
    dof rx ry rz
    limits (-20.0 45.0)
           (-30.0 30.0)
           (-30.0 30.0)
  end
  begin
     id 16
     name head
     direction 0.00881535 0.99956 -0.0283365  
     length 1.81545  
     axis 0 0 0   XYZ
    dof rx ry rz
    limits (-20.0 45.0)
           (-30.0 30.0)
           (-30.0 30.0)
  end
  begin
     id 17 
     name lclavicle
     direction 0.840411 0.486876 -0.238035  
     length 3.30409  
     axis 0 0 0   XYZ
    dof ry rz
    limits (-20.0 10.0)
           (0.0 20.0)
  end
  begin
     id 18 
     name lhumerus
     direction 1 -4.48977e-011 -5.16239e-027   
     length 4.62672   
     axis 180 -30 -90   XYZ
    dof rx ry rz
    limits (-60.0 90.0)
           (-90.0 90.0)
           (-90.0 90.0)
  end
  begin
     id 19
     name lradius
     direction 1 -4.48977e-011 -8.71171e-027   
     length 3.11018   
     axis 180 -30 -90   XYZ
    dof rx
    limits (-10.0 170.0)
  end
  begin
     id 20
     name lwrist
     direction 1 -4.48912e-011 -1.03764e-026   
     length 1.55509   
     axis 9.09556e-015 90 90   XYZ
    dof ry
    limits (-180.0 0.0)
 end
  begin
     id 21 
     name lhand
     direction 1 -4.49072e-011 -2.07528e-026   
     length 0.743834   
     axis 1.3242e-014 90 90   XYZ
    dof rx rz
    limits (-90.0 90.0)
           (-45.0 45.0)
  end
  begin
     id 22 
     name lfingers
     direction 1 -4.48909e-011 -4.15056e-026   
     length 0.599698   
     axis 2.64841e-014 90 90   XYZ
    dof rx
    limits (0.0 90.0)
  end
  begin
     id 23
     name lthumb
     direction 0.707107 -6.35013e-011 0.707107   
     length 0.86105   
     axis -90 45 2.85299e-015   XYZ
    dof rx rz
    limits (-45.0 45.0)
           (-45.0 45.0)
  end
  begin
     id 24 
     name rclavicle
     direction -0.835208 0.500237 -0.228452   
     length 3.2716  
     axis 0 0 0   XYZ 
    dof ry rz
    limits (-10.0 20.0)
           (-20.0 0.0)
  end
  begin
     id 25 
     name rhumerus
     direction -1 -4.48978e-011 -5.1953e-028  
     length 4.55919   
     axis 180 30 90   XYZ
    dof rx ry rz
    limits (-90.0 60.0)
           (-90.0 90.0)
           (-90.0 90.0)
  end
  begin
     id 26 
     name rradius
     direction -1 -4.48961e-011 -5.99546e-027   
     length 3.22748   
     axis 180 30 90   XYZ
    dof rx
    limits (-10.0 170.0)
  end
  begin
     id 27 
     name rwrist
     direction -1 -4.48986e-011 -1.03764e-026   
     length 1.61374   
     axis 9.09556e-015 -90 -90   XYZ
    dof ry
    limits (-180.0 0.0)
  end
  begin
     id 28
     name rhand
     direction -1 -4.4899e-011 -2.07528e-026   
     length 0.700882   
     axis 1.3242e-014 -90 -90   XYZ
    dof rx rz
    limits (-90.0 90.0)
           (-45.0 45.0)
  end
  begin
     id 29
     name rfingers
     direction -1 -4.48991e-011 -4.15056e-026   
     length 0.565069   
     axis 2.64841e-014 -90 -90   XYZ
    dof rx
    limits (0.0 90.0)
  end
  begin
     id 30
     name rthumb
     direction -0.707107 -6.34804e-011 0.707107   
     length 0.811329   
     axis -90 -45 -2.85299e-015   XYZ
    dof rx rz
    limits (-45.0 45.0)
           (-45.0 45.0)
  end
:hierarchy
  begin
    root lhipjoint rhipjoint lowerback
    lhipjoint lfemur
    lfemur ltibia
    ltibia lfoot
    lfoot ltoes
    rhipjoint rfemur
    rfemur rtibia
    rtibia rfoot
    rfoot rtoes
    lowerback upperback
    upperback thorax
    thorax lowerneck lclavicle rclavicle
    lowerneck upperneck
    upperneck head
    lclavicle lhumerus
    lhumerus lradius
    lradius lwrist
    lwrist lhand lthumb
    lhand lfingers
    rclavicle rhumerus
    rhumerus rradius
    rradius rwrist
    rwrist rhand rthumb
    rhand rfingers
  end

#!OML:ASF F:\VICON\USERDATA\INSTALL\SteveWalk\SteveWalk.ASF
:FULLY-SPECIFIED
:DEGREES
80
root -0.409629 16.404 -25.8078 15.8815 -2.78941 2.50468
lowerback -13.6824 -0.484356 -4.87909
upperback -5.01703 0.0202694 -0.937766
thorax 2.37569 0.0360911 1.77512
lowerneck -3.35576 -1.54707 -0.796269
upperneck 15.8096 -2.38505 2.28644
head 5.34295 -1.06737 0.710736
rclavicle 7.87374e-016 -9.74045e-015
rhumerus -44.0262 -20.442 -73.7408
rradius 19.9499
rwrist 9.83744
rhand -13.4921 -34.107
rfingers 7.12502
rthumb 12.6188 -63.7058
lclavicle 7.87374e-016 -9.74045e-015
lhumerus -39.9123 16.8868 73.7825
lradius 20.9454
lwrist -16.2783
lhand -16.8261 -14.9545
lfingers 7.12502
lthumb 9.4031 14.8158
rfemur -41.1021 -3.13549 18.0245
rtibia 73.1905
rfoot -8.97345 0.39894
rtoes -14.9584
lfemur -31.0847 1.55047 -27.2849
ltibia 36.3075
lfoot -20.2402 0.0917548
ltoes -8.21024
81
root -0.406802 16.4072 -25.5987 15.7327 -2.66361 2.27625
lowerback -13.4992 -0.479631 -4.72823
upperback -5.02624 -0.00946797 -0.778974
thorax 2.27006 0.0238894 1.85163
lowerneck -3.17094 -1.56806 -0.880912
upperneck 15.8625 -2.41128 2.30964
head 5.32947 -1.08457 0.731993
rclavicle 7.34571e-016 5.36719e-015
rhumerus -45.379 -22.878 -70.9882
rradius 18.4415
rwrist 13.3608
rhand -13.2794 -34.037
rfingers 7.12502
rthumb 12.8239 -63.6231
lclavicle 7.34571e-016 5.36719e-015
lhumerus -38.9506 14.3522 75.7264
lradius 22.5072
lwrist -13.3077
lhand -17.3006 -14.8169
lfingers 7.12502
lthumb 8.94533 14.9734
rfemur -42.2498 -2.93781 18.5147
rtibia 71.8831
rfoot -9.64027 0.017191
rtoes -14.7125
lfemur -29.9333 1.93094 -27.1154
ltibia 36.0044
lfoot -20.8362 0.015459
ltoes -8.558
82
root -0.408843 16.4155 -25.3727 15.3694 -1.69758 2.3798
lowerback -13.3174 -0.818383 -4.84826
upperback -4.77956 -0.446523 -0.664838
thorax 2.46075 -0.199329 1.97209
lowerneck -3.58611 -1.48556 -0.884344
upperneck 16.0149 -2.29757 2.28654
head 5.44564 -1.02635 0.728188
rclavicle -1.99095e-015 -6.55989e-015
rhumerus -46.6461 -25.1622 -68.3204
rradius 17.2036
rwrist 16.3912
rhand -13.3487 -33.9451
rfingers 7.12502
rthumb 12.7571 -63.5354
lclavicle -1.99095e-015 -6.55989e-015
lhumerus -37.7163 12.2261 77.3924
lradius 24.0012
lwrist -10.3875
lhand -17.4457 -14.6389
lfingers 7.12502
lthumb 8.80526 15.1574
rfemur -42.725 -3.39522 18.8542
rtibia 70.3012
rfoot -10.7172 -0.550687
rtoes -13.6798
lfemur -28.4207 1.74942 -27.0422
ltibia 35.7137
lfoot -21.6207 -0.462879
ltoes -8.31339
83
root -0.416072 16.4029 -25.1638 15.4171 -1.5617 2.37853
lowerback -13.4337 -0.915241 -5.03804
upperback -4.73995 -0.546254 -0.530068
thorax 2.57371 -0.250123 2.20377
lowerneck -3.67543 -1.41595 -0.843969
upperneck 16.0461 -2.19618 2.21617
head 5.46773 -0.978206 0.704704
rclavicle 3.5525e-015 -6.75868e-015
rhumerus -48.2648 -27.2978 -65.4003
rradius 16.2818
rwrist 19.5528
rhand -13.1352 -34.9029
rfingers 7.12502
rthumb 12.9628 -64.4802
lclavicle 3.5525e-015 -6.75868e-015
lhumerus -36.4944 10.8636 78.5064
lradius 24.8373
lwrist -8.67951
lhand -18.2271 -15.3693
lfingers 7.12502
lthumb 8.05119 14.4573
rfemur -43.7445 -3.05936 19.0395
rtibia 68.6265
rfoot -11.8337 -0.860008
rtoes -9.72403
lfemur -27.5615 2.1996 -27.053
ltibia 35.5145
lfoot -22.2094 -1.11143
ltoes -7.40832
84
root -0.406157 16.391 -24.9581 15.4672 -1.31278 2.13803
lowerback -13.3837 -0.950963 -4.72801
upperback -4.78814 -0.642923 -0.375972
thorax 2.50343 -0.296493 2.17596
lowerneck -3.57409 -1.44299 -1.02432
upperneck 16.1085 -2.24424 2.38617
head 5.47429 -1.00132 0.785627
rclavicle 6.07225e-015 2.68359e-015
rhumerus -50.5223 -30.0363 -61.3114
rradius 15.0948
rwrist 23.7713
rhand -13.3852 -34.8757
rfingers 7.12502
rthumb 12.7219 -64.4682
lclavicle 6.07225e-015 2.68359e-015
lhumerus -35.62 9.46776 79.4571
lradius 25.9362
lwrist -7.19781
lhand -19.1087 -16.4934
lfingers 7.12502
lthumb 7.20025 13.3641
rfemur -44.6558 -3.03156 19.4538
rtibia 66.6914
rfoot -12.9047 -1.26995
rtoes -11.1164
lfemur -26.664 2.71575 -26.8747
ltibia 35.3113
lfoot -22.9104 -1.84681
ltoes -6.28945
85
root -0.402594 16.3831 -24.752 15.5167 -0.922401 2.03116
lowerback -13.3593 -1.05421 -4.60747
upperback -4.74636 -0.798083 -0.270538
thorax 2.54579 -0.37506 2.19431
lowerneck -3.75918 -1.48632 -1.24215
upperneck 16.1844 -2.32113 2.62781
head 5.5361 -1.03349 0.891313
rclavicle -5.94355e-015 -1.09332e-015
rhumerus -53.0397 -32.8699 -56.824
rradius 14.0064
rwrist 28.0243
rhand -13.6555 -34.134
rfingers 7.12502
rthumb 12.4613 -63.7425
lclavicle -5.94355e-015 -1.09332e-015
lhumerus -34.6737 7.76964 80.38
lradius 27.4708
lwrist -5.17766
lhand -18.9994 -16.7497
lfingers 7.12502
lthumb 7.30574 13.1041
rfemur -45.562 -3.07152 19.8268
rtibia 64.5409
rfoot -13.779 -2.01133
rtoes -13.8095
lfemur -25.7854 3.23152 -26.7811
ltibia 35.1139
lfoot -23.7174 -2.56955
ltoes -4.98821
86
root -0.401872 16.378 -24.5489 15.752 -0.333184 1.98037
lowerback -13.4794 -1.22265 -4.50818
upperback -4.74962 -1.02825 -0.208538
thorax 2.62358 -0.49086 2.16597
lowerneck -3.95314 -1.54133 -1.1233
upperneck 16.2616 -2.39286 2.52774
head 5.59257 -1.06592 0.834352
rclavicle 1.79634e-015 -6.26172e-015
rhumerus -55.5631 -35.0415 -52.8726
rradius 13.4266
rwrist 31.344
rhand -13.2311 -34.7851
rfingers 7.12502
rthumb 12.8705 -64.3683
lclavicle 1.79634e-015 -6.26172e-015
lhumerus -33.7123 6.11801 81.1198
lradius 29.0352
lwrist -3.50312
lhand -19.0127 -16.1184
lfingers 7.12502
lthumb 7.29289 13.7359
rfemur -46.5497 -3.1384 20.1056
rtibia 62.1382
rfoot -14.2645 -2.76224
rtoes -15.8291
lfemur -25.1041 3.80747 -26.7239
ltibia 34.81
lfoot -24.2908 -3.68233
ltoes -2.92625
